STARTFONT 2.1
COMMENT (null)
FONT apl8x13
SIZE 13 78 78
FONTBOUNDINGBOX 8 13 0 -3
STARTPROPERTIES 4
DEFAULT_CHAR 0
FONT_DESCENT 3
FONT_ASCENT 10
COPYRIGHT "Public domain APL font.  Share and enjoy."
ENDPROPERTIES
CHARS 256
STARTCHAR nul
ENCODING 000 
SWIDTH 666 0
DWIDTH 8 0
BBX 8 13 0 -3
BITMAP
0000
0000
0000
0000
0000
0000
0000
0000
0000
0000
0000
0000
0000
ENDCHAR
STARTCHAR nul
ENCODING 001 
SWIDTH 666 0
DWIDTH 8 0
BBX 8 13 0 -3
BITMAP
0000
0000
0000
0000
0000
0000
0000
0000
0000
0000
0000
0000
0000
ENDCHAR
STARTCHAR nul
ENCODING 002 
SWIDTH 666 0
DWIDTH 8 0
BBX 8 13 0 -3
BITMAP
0000
0000
0000
0000
0000
0000
0000
0000
0000
0000
0000
0000
0000
ENDCHAR
STARTCHAR nul
ENCODING 003 
SWIDTH 666 0
DWIDTH 8 0
BBX 8 13 0 -3
BITMAP
0000
0000
0000
0000
0000
0000
0000
0000
0000
0000
0000
0000
0000
ENDCHAR
STARTCHAR nul
ENCODING 004 
SWIDTH 666 0
DWIDTH 8 0
BBX 8 13 0 -3
BITMAP
0000
0000
0000
0000
0000
0000
0000
0000
0000
0000
0000
0000
0000
ENDCHAR
STARTCHAR nul
ENCODING 005 
SWIDTH 666 0
DWIDTH 8 0
BBX 8 13 0 -3
BITMAP
0000
0000
0000
0000
0000
0000
0000
0000
0000
0000
0000
0000
0000
ENDCHAR
STARTCHAR nul
ENCODING 006 
SWIDTH 666 0
DWIDTH 8 0
BBX 8 13 0 -3
BITMAP
0000
0000
0000
0000
0000
0000
0000
0000
0000
0000
0000
0000
0000
ENDCHAR
STARTCHAR nul
ENCODING 007 
SWIDTH 666 0
DWIDTH 8 0
BBX 8 13 0 -3
BITMAP
0000
0000
0000
0000
0000
0000
0000
0000
0000
0000
0000
0000
0000
ENDCHAR
STARTCHAR nul
ENCODING 008 
SWIDTH 666 0
DWIDTH 8 0
BBX 8 13 0 -3
BITMAP
0000
0000
0000
0000
0000
0000
0000
0000
0000
0000
0000
0000
0000
ENDCHAR
STARTCHAR nul
ENCODING 009 
SWIDTH 666 0
DWIDTH 8 0
BBX 8 13 0 -3
BITMAP
0000
0000
0000
0000
0000
0000
0000
0000
0000
0000
0000
0000
0000
ENDCHAR
STARTCHAR nul
ENCODING 010 
SWIDTH 666 0
DWIDTH 8 0
BBX 8 13 0 -3
BITMAP
0000
0000
0000
0000
0000
0000
0000
0000
0000
0000
0000
0000
0000
ENDCHAR
STARTCHAR nul
ENCODING 011 
SWIDTH 666 0
DWIDTH 8 0
BBX 8 13 0 -3
BITMAP
0000
0000
0000
0000
0000
0000
0000
0000
0000
0000
0000
0000
0000
ENDCHAR
STARTCHAR nul
ENCODING 012 
SWIDTH 666 0
DWIDTH 8 0
BBX 8 13 0 -3
BITMAP
0000
0000
0000
0000
0000
0000
0000
0000
0000
0000
0000
0000
0000
ENDCHAR
STARTCHAR nul
ENCODING 013 
SWIDTH 666 0
DWIDTH 8 0
BBX 8 13 0 -3
BITMAP
0000
0000
0000
0000
0000
0000
0000
0000
0000
0000
0000
0000
0000
ENDCHAR
STARTCHAR nul
ENCODING 014 
SWIDTH 666 0
DWIDTH 8 0
BBX 8 13 0 -3
BITMAP
0000
0000
0000
0000
0000
0000
0000
0000
0000
0000
0000
0000
0000
ENDCHAR
STARTCHAR nul
ENCODING 015 
SWIDTH 666 0
DWIDTH 8 0
BBX 8 13 0 -3
BITMAP
0000
0000
0000
0000
0000
0000
0000
0000
0000
0000
0000
0000
0000
ENDCHAR
STARTCHAR nul
ENCODING 016 
SWIDTH 666 0
DWIDTH 8 0
BBX 8 13 0 -3
BITMAP
0000
0000
0000
0000
0000
0000
0000
0000
0000
0000
0000
0000
0000
ENDCHAR
STARTCHAR nul
ENCODING 017 
SWIDTH 666 0
DWIDTH 8 0
BBX 8 13 0 -3
BITMAP
0000
0000
0000
0000
0000
0000
0000
0000
0000
0000
0000
0000
0000
ENDCHAR
STARTCHAR nul
ENCODING 018 
SWIDTH 666 0
DWIDTH 8 0
BBX 8 13 0 -3
BITMAP
0000
0000
0000
0000
0000
0000
0000
0000
0000
0000
0000
0000
0000
ENDCHAR
STARTCHAR nul
ENCODING 019 
SWIDTH 666 0
DWIDTH 8 0
BBX 8 13 0 -3
BITMAP
0000
0000
0000
0000
0000
0000
0000
0000
0000
0000
0000
0000
0000
ENDCHAR
STARTCHAR nul
ENCODING 020 
SWIDTH 666 0
DWIDTH 8 0
BBX 8 13 0 -3
BITMAP
0000
0000
0000
0000
0000
0000
0000
0000
0000
0000
0000
0000
0000
ENDCHAR
STARTCHAR nul
ENCODING 021 
SWIDTH 666 0
DWIDTH 8 0
BBX 8 13 0 -3
BITMAP
0000
0000
0000
0000
0000
0000
0000
0000
0000
0000
0000
0000
0000
ENDCHAR
STARTCHAR nul
ENCODING 022 
SWIDTH 666 0
DWIDTH 8 0
BBX 8 13 0 -3
BITMAP
0000
0000
0000
0000
0000
0000
0000
0000
0000
0000
0000
0000
0000
ENDCHAR
STARTCHAR nul
ENCODING 023 
SWIDTH 666 0
DWIDTH 8 0
BBX 8 13 0 -3
BITMAP
0000
0000
0000
0000
0000
0000
0000
0000
0000
0000
0000
0000
0000
ENDCHAR
STARTCHAR nul
ENCODING 024 
SWIDTH 666 0
DWIDTH 8 0
BBX 8 13 0 -3
BITMAP
0000
0000
0000
0000
0000
0000
0000
0000
0000
0000
0000
0000
0000
ENDCHAR
STARTCHAR nul
ENCODING 025 
SWIDTH 666 0
DWIDTH 8 0
BBX 8 13 0 -3
BITMAP
0000
0000
0000
0000
0000
0000
0000
0000
0000
0000
0000
0000
0000
ENDCHAR
STARTCHAR nul
ENCODING 026 
SWIDTH 666 0
DWIDTH 8 0
BBX 8 13 0 -3
BITMAP
0000
0000
0000
0000
0000
0000
0000
0000
0000
0000
0000
0000
0000
ENDCHAR
STARTCHAR nul
ENCODING 027 
SWIDTH 666 0
DWIDTH 8 0
BBX 8 13 0 -3
BITMAP
0000
0000
0000
0000
0000
0000
0000
0000
0000
0000
0000
0000
0000
ENDCHAR
STARTCHAR nul
ENCODING 028 
SWIDTH 666 0
DWIDTH 8 0
BBX 8 13 0 -3
BITMAP
0000
0000
0000
0000
0000
0000
0000
0000
0000
0000
0000
0000
0000
ENDCHAR
STARTCHAR nul
ENCODING 029 
SWIDTH 666 0
DWIDTH 8 0
BBX 8 13 0 -3
BITMAP
0000
0000
0000
0000
0000
0000
0000
0000
0000
0000
0000
0000
0000
ENDCHAR
STARTCHAR nul
ENCODING 030 
SWIDTH 666 0
DWIDTH 8 0
BBX 8 13 0 -3
BITMAP
0000
0000
0000
0000
0000
0000
0000
0000
0000
0000
0000
0000
0000
ENDCHAR
STARTCHAR nul
ENCODING 031 
SWIDTH 666 0
DWIDTH 8 0
BBX 8 13 0 -3
BITMAP
0000
0000
0000
0000
0000
0000
0000
0000
0000
0000
0000
0000
0000
ENDCHAR
STARTCHAR nul
ENCODING 032 
SWIDTH 666 0
DWIDTH 8 0
BBX 8 13 0 -3
BITMAP
0000
0000
0000
0000
0000
0000
0000
0000
0000
0000
0000
0000
0000
ENDCHAR
STARTCHAR bang
ENCODING 033 
SWIDTH 666 0
DWIDTH 8 0
BBX 8 13 0 -3
BITMAP
0000
0800
0800
0800
0800
0800
0800
0800
0000
0800
0800
0000
0000
ENDCHAR
STARTCHAR "
ENCODING 034 
SWIDTH 666 0
DWIDTH 8 0
BBX 8 13 0 -3
BITMAP
0000
2400
2400
2400
0000
0000
0000
0000
0000
0000
0000
0000
0000
ENDCHAR
STARTCHAR pound
ENCODING 035 
SWIDTH 666 0
DWIDTH 8 0
BBX 8 13 0 -3
BITMAP
0000
0000
0000
2400
2400
7e00
2400
7e00
2400
2400
0000
0000
0000
ENDCHAR
STARTCHAR dollar
ENCODING 036 
SWIDTH 666 0
DWIDTH 8 0
BBX 8 13 0 -3
BITMAP
0000
0000
0000
1000
3c00
5000
3800
1400
7800
1000
0000
0000
0000
ENDCHAR
STARTCHAR pct
ENCODING 037 
SWIDTH 666 0
DWIDTH 8 0
BBX 8 13 0 -3
BITMAP
0000
0000
2200
5200
2400
0800
0800
1000
2400
2a00
4400
0000
0000
ENDCHAR
STARTCHAR amper
ENCODING 038 
SWIDTH 666 0
DWIDTH 8 0
BBX 8 13 0 -3
BITMAP
0000
0000
0000
0000
3000
4800
4800
3000
4a00
4400
3a00
0000
0000
ENDCHAR
STARTCHAR quote
ENCODING 039 
SWIDTH 666 0
DWIDTH 8 0
BBX 8 13 0 -3
BITMAP
0000
0000
1800
1800
1800
1800
0000
0000
0000
0000
0000
0000
0000
ENDCHAR
STARTCHAR lparen
ENCODING 040 
SWIDTH 666 0
DWIDTH 8 0
BBX 8 13 0 -3
BITMAP
0000
0000
0400
0800
0800
1000
1000
1000
0800
0800
0400
0000
0000
ENDCHAR
STARTCHAR rparen
ENCODING 041 
SWIDTH 666 0
DWIDTH 8 0
BBX 8 13 0 -3
BITMAP
0000
0000
2000
1000
1000
0800
0800
0800
1000
1000
2000
0000
0000
ENDCHAR
STARTCHAR star
ENCODING 042 
SWIDTH 666 0
DWIDTH 8 0
BBX 8 13 0 -3
BITMAP
0000
0000
0000
0000
2400
1800
7e00
1800
2400
0000
0000
0000
0000
ENDCHAR
STARTCHAR plus
ENCODING 043 
SWIDTH 666 0
DWIDTH 8 0
BBX 8 13 0 -3
BITMAP
0000
0000
0000
0000
1000
1000
7c00
1000
1000
0000
0000
0000
0000
ENDCHAR
STARTCHAR comma
ENCODING 044 
SWIDTH 666 0
DWIDTH 8 0
BBX 8 13 0 -3
BITMAP
0000
0000
0000
0000
0000
0000
0000
0000
0000
3800
3000
4000
0000
ENDCHAR
STARTCHAR dash
ENCODING 045 
SWIDTH 666 0
DWIDTH 8 0
BBX 8 13 0 -3
BITMAP
0000
0000
0000
0000
0000
0000
7e00
0000
0000
0000
0000
0000
0000
ENDCHAR
STARTCHAR dot
ENCODING 046 
SWIDTH 666 0
DWIDTH 8 0
BBX 8 13 0 -3
BITMAP
0000
0000
0000
0000
0000
0000
0000
0000
0000
1800
1800
0000
0000
ENDCHAR
STARTCHAR slash
ENCODING 047 
SWIDTH 666 0
DWIDTH 8 0
BBX 8 13 0 -3
BITMAP
0000
0000
0200
0200
0400
0800
1000
2000
4000
8000
8000
0000
0000
ENDCHAR
STARTCHAR 0
ENCODING 048 
SWIDTH 666 0
DWIDTH 8 0
BBX 8 13 0 -3
BITMAP
0000
0000
1800
2400
4200
4200
4200
4200
4200
2400
1800
0000
0000
ENDCHAR
STARTCHAR 1
ENCODING 049 
SWIDTH 666 0
DWIDTH 8 0
BBX 8 13 0 -3
BITMAP
0000
0000
1000
3000
5000
1000
1000
1000
1000
1000
7c00
0000
0000
ENDCHAR
STARTCHAR 2
ENCODING 050 
SWIDTH 666 0
DWIDTH 8 0
BBX 8 13 0 -3
BITMAP
0000
0000
3c00
4200
4200
0200
0400
1800
2000
4000
7e00
0000
0000
ENDCHAR
STARTCHAR 3
ENCODING 051 
SWIDTH 666 0
DWIDTH 8 0
BBX 8 13 0 -3
BITMAP
0000
0000
7e00
0200
0400
0800
1c00
0200
0200
4200
3c00
0000
0000
ENDCHAR
STARTCHAR 4
ENCODING 052 
SWIDTH 666 0
DWIDTH 8 0
BBX 8 13 0 -3
BITMAP
0000
0000
0400
0c00
1400
2400
4400
4400
7e00
0400
0400
0000
0000
ENDCHAR
STARTCHAR 5
ENCODING 053 
SWIDTH 666 0
DWIDTH 8 0
BBX 8 13 0 -3
BITMAP
0000
0000
7e00
4000
4000
5c00
6200
0200
0200
4200
3c00
0000
0000
ENDCHAR
STARTCHAR 6
ENCODING 054 
SWIDTH 666 0
DWIDTH 8 0
BBX 8 13 0 -3
BITMAP
0000
0000
1c00
2000
4000
4000
5c00
6200
4200
4200
3c00
0000
0000
ENDCHAR
STARTCHAR 7
ENCODING 055 
SWIDTH 666 0
DWIDTH 8 0
BBX 8 13 0 -3
BITMAP
0000
0000
7e00
0200
0400
0800
0800
1000
1000
2000
2000
0000
0000
ENDCHAR
STARTCHAR 8
ENCODING 056 
SWIDTH 666 0
DWIDTH 8 0
BBX 8 13 0 -3
BITMAP
0000
0000
3c00
4200
4200
4200
3c00
4200
4200
4200
3c00
0000
0000
ENDCHAR
STARTCHAR 9
ENCODING 057 
SWIDTH 666 0
DWIDTH 8 0
BBX 8 13 0 -3
BITMAP
0000
0000
3c00
4200
4200
4600
3a00
0200
0200
0400
3800
0000
0000
ENDCHAR
STARTCHAR colon
ENCODING 058 
SWIDTH 666 0
DWIDTH 8 0
BBX 8 13 0 -3
BITMAP
0000
0000
0000
0000
1800
1800
0000
0000
0000
1800
1800
0000
0000
ENDCHAR
STARTCHAR semicolon
ENCODING 059 
SWIDTH 666 0
DWIDTH 8 0
BBX 8 13 0 -3
BITMAP
0000
0000
0000
0000
1800
1800
0000
0000
0000
3800
3000
4000
0000
ENDCHAR
STARTCHAR before
ENCODING 060 
SWIDTH 666 0
DWIDTH 8 0
BBX 8 13 0 -3
BITMAP
0000
0000
0200
0400
0800
1000
2000
1000
0800
0400
0200
0000
0000
ENDCHAR
STARTCHAR equal
ENCODING 061 
SWIDTH 666 0
DWIDTH 8 0
BBX 8 13 0 -3
BITMAP
0000
0000
0000
0000
0000
7e00
0000
0000
7e00
0000
0000
0000
0000
ENDCHAR
STARTCHAR after
ENCODING 062 
SWIDTH 666 0
DWIDTH 8 0
BBX 8 13 0 -3
BITMAP
0000
0000
4000
2000
1000
0800
0400
0800
1000
2000
4000
0000
0000
ENDCHAR
STARTCHAR hook
ENCODING 063 
SWIDTH 666 0
DWIDTH 8 0
BBX 8 13 0 -3
BITMAP
0000
0000
3c00
4200
4200
0200
0400
0800
0800
0000
0800
0000
0000
ENDCHAR
STARTCHAR at
ENCODING 064 
SWIDTH 666 0
DWIDTH 8 0
BBX 8 13 0 -3
BITMAP
0000
0000
3c00
4200
4200
4e00
5200
5600
4a00
4000
3c00
0000
0000
ENDCHAR
STARTCHAR A
ENCODING 065 
SWIDTH 666 0
DWIDTH 8 0
BBX 8 13 0 -3
BITMAP
0000
0000
1800
2400
4200
4200
4200
7e00
4200
4200
4200
0000
0000
ENDCHAR
STARTCHAR B
ENCODING 066 
SWIDTH 666 0
DWIDTH 8 0
BBX 8 13 0 -3
BITMAP
0000
0000
fc00
4200
4200
4200
7c00
4200
4200
4200
fc00
0000
0000
ENDCHAR
STARTCHAR C
ENCODING 067 
SWIDTH 666 0
DWIDTH 8 0
BBX 8 13 0 -3
BITMAP
0000
0000
3c00
4200
4000
4000
4000
4000
4000
4200
3c00
0000
0000
ENDCHAR
STARTCHAR D
ENCODING 068 
SWIDTH 666 0
DWIDTH 8 0
BBX 8 13 0 -3
BITMAP
0000
0000
fc00
4200
4200
4200
4200
4200
4200
4200
fc00
0000
0000
ENDCHAR
STARTCHAR E
ENCODING 069 
SWIDTH 666 0
DWIDTH 8 0
BBX 8 13 0 -3
BITMAP
0000
0000
7e00
4000
4000
4000
7800
4000
4000
4000
7e00
0000
0000
ENDCHAR
STARTCHAR F
ENCODING 070 
SWIDTH 666 0
DWIDTH 8 0
BBX 8 13 0 -3
BITMAP
0000
0000
7e00
4000
4000
4000
7800
4000
4000
4000
4000
0000
0000
ENDCHAR
STARTCHAR G
ENCODING 071 
SWIDTH 666 0
DWIDTH 8 0
BBX 8 13 0 -3
BITMAP
0000
0000
3c00
4200
4000
4000
4000
4e00
4200
4600
3a00
0000
0000
ENDCHAR
STARTCHAR H
ENCODING 072 
SWIDTH 666 0
DWIDTH 8 0
BBX 8 13 0 -3
BITMAP
0000
0000
4200
4200
4200
4200
7e00
4200
4200
4200
4200
0000
0000
ENDCHAR
STARTCHAR I
ENCODING 073 
SWIDTH 666 0
DWIDTH 8 0
BBX 8 13 0 -3
BITMAP
0000
0000
7c00
1000
1000
1000
1000
1000
1000
1000
7c00
0000
0000
ENDCHAR
STARTCHAR J
ENCODING 074 
SWIDTH 666 0
DWIDTH 8 0
BBX 8 13 0 -3
BITMAP
0000
0000
1e00
0400
0400
0400
0400
0400
0400
4400
3800
0000
0000
ENDCHAR
STARTCHAR K
ENCODING 075 
SWIDTH 666 0
DWIDTH 8 0
BBX 8 13 0 -3
BITMAP
0000
0000
4200
4400
4800
5000
6000
5000
4800
4400
4200
0000
0000
ENDCHAR
STARTCHAR L
ENCODING 076 
SWIDTH 666 0
DWIDTH 8 0
BBX 8 13 0 -3
BITMAP
0000
0000
4000
4000
4000
4000
4000
4000
4000
4000
7e00
0000
0000
ENDCHAR
STARTCHAR M
ENCODING 077 
SWIDTH 666 0
DWIDTH 8 0
BBX 8 13 0 -3
BITMAP
0000
0000
8200
8200
c600
aa00
9200
9200
8200
8200
8200
0000
0000
ENDCHAR
STARTCHAR N
ENCODING 078 
SWIDTH 666 0
DWIDTH 8 0
BBX 8 13 0 -3
BITMAP
0000
0000
4200
4200
6200
5200
4a00
4600
4200
4200
4200
0000
0000
ENDCHAR
STARTCHAR O
ENCODING 079 
SWIDTH 666 0
DWIDTH 8 0
BBX 8 13 0 -3
BITMAP
0000
0000
3c00
4200
4200
4200
4200
4200
4200
4200
3c00
0000
0000
ENDCHAR
STARTCHAR P
ENCODING 080 
SWIDTH 666 0
DWIDTH 8 0
BBX 8 13 0 -3
BITMAP
0000
0000
7c00
4200
4200
4200
7c00
4000
4000
4000
4000
0000
0000
ENDCHAR
STARTCHAR Q
ENCODING 081 
SWIDTH 666 0
DWIDTH 8 0
BBX 8 13 0 -3
BITMAP
0000
0000
3c00
4200
4200
4200
4200
4200
5200
4a00
3c00
0200
0000
ENDCHAR
STARTCHAR R
ENCODING 082 
SWIDTH 666 0
DWIDTH 8 0
BBX 8 13 0 -3
BITMAP
0000
0000
7c00
4200
4200
4200
7c00
5000
4800
4400
4200
0000
0000
ENDCHAR
STARTCHAR S
ENCODING 083 
SWIDTH 666 0
DWIDTH 8 0
BBX 8 13 0 -3
BITMAP
0000
0000
3c00
4200
4000
4000
3c00
0200
0200
4200
3c00
0000
0000
ENDCHAR
STARTCHAR T
ENCODING 084 
SWIDTH 666 0
DWIDTH 8 0
BBX 8 13 0 -3
BITMAP
0000
0000
fe00
1000
1000
1000
1000
1000
1000
1000
1000
0000
0000
ENDCHAR
STARTCHAR U
ENCODING 085 
SWIDTH 666 0
DWIDTH 8 0
BBX 8 13 0 -3
BITMAP
0000
0000
4200
4200
4200
4200
4200
4200
4200
4200
3c00
0000
0000
ENDCHAR
STARTCHAR V
ENCODING 086 
SWIDTH 666 0
DWIDTH 8 0
BBX 8 13 0 -3
BITMAP
0000
0000
8200
8200
4400
4400
4400
2800
2800
2800
1000
0000
0000
ENDCHAR
STARTCHAR W
ENCODING 087 
SWIDTH 666 0
DWIDTH 8 0
BBX 8 13 0 -3
BITMAP
0000
0000
8200
8200
8200
8200
9200
9200
9200
aa00
4400
0000
0000
ENDCHAR
STARTCHAR X
ENCODING 088 
SWIDTH 666 0
DWIDTH 8 0
BBX 8 13 0 -3
BITMAP
0000
0000
8200
8200
4400
2800
1000
2800
4400
8200
8200
0000
0000
ENDCHAR
STARTCHAR Y
ENCODING 089 
SWIDTH 666 0
DWIDTH 8 0
BBX 8 13 0 -3
BITMAP
0000
0000
8200
8200
4400
2800
1000
1000
1000
1000
1000
0000
0000
ENDCHAR
STARTCHAR Z
ENCODING 090 
SWIDTH 666 0
DWIDTH 8 0
BBX 8 13 0 -3
BITMAP
0000
0000
7e00
0200
0400
0800
1000
2000
4000
4000
7e00
0000
0000
ENDCHAR
STARTCHAR lbracket
ENCODING 091 
SWIDTH 666 0
DWIDTH 8 0
BBX 8 13 0 -3
BITMAP
0000
0000
3c00
2000
2000
2000
2000
2000
2000
2000
3c00
0000
0000
ENDCHAR
STARTCHAR slope
ENCODING 092 
SWIDTH 666 0
DWIDTH 8 0
BBX 8 13 0 -3
BITMAP
0000
0000
8000
8000
4000
2000
1000
0800
0400
0200
0200
0000
0000
ENDCHAR
STARTCHAR rbracket
ENCODING 093 
SWIDTH 666 0
DWIDTH 8 0
BBX 8 13 0 -3
BITMAP
0000
0000
3c00
0400
0400
0400
0400
0400
0400
0400
3c00
0000
0000
ENDCHAR
STARTCHAR caret
ENCODING 094 
SWIDTH 666 0
DWIDTH 8 0
BBX 8 13 0 -3
BITMAP
0000
0000
0000
1000
2800
2800
4400
4400
8200
8200
0000
0000
0000
ENDCHAR
STARTCHAR under
ENCODING 095 
SWIDTH 666 0
DWIDTH 8 0
BBX 8 13 0 -3
BITMAP
0000
0000
0000
0000
0000
0000
0000
0000
0000
0000
0000
ff00
0000
ENDCHAR
STARTCHAR grave
ENCODING 096 
SWIDTH 666 0
DWIDTH 8 0
BBX 8 13 0 -3
BITMAP
0000
0000
3800
1800
0400
0000
0000
0000
0000
0000
0000
0000
0000
ENDCHAR
STARTCHAR a
ENCODING 097 
SWIDTH 666 0
DWIDTH 8 0
BBX 8 13 0 -3
BITMAP
0000
0000
0000
0000
0000
3c00
0200
3e00
4200
4600
3a00
0000
0000
ENDCHAR
STARTCHAR b
ENCODING 098 
SWIDTH 666 0
DWIDTH 8 0
BBX 8 13 0 -3
BITMAP
0000
0000
4000
4000
4000
5c00
6200
4200
4200
6200
5c00
0000
0000
ENDCHAR
STARTCHAR c
ENCODING 099 
SWIDTH 666 0
DWIDTH 8 0
BBX 8 13 0 -3
BITMAP
0000
0000
0000
0000
0000
3c00
4200
4000
4000
4200
3c00
0000
0000
ENDCHAR
STARTCHAR d
ENCODING 100 
SWIDTH 666 0
DWIDTH 8 0
BBX 8 13 0 -3
BITMAP
0000
0000
0200
0200
0200
3a00
4600
4200
4200
4600
3a00
0000
0000
ENDCHAR
STARTCHAR e
ENCODING 101 
SWIDTH 666 0
DWIDTH 8 0
BBX 8 13 0 -3
BITMAP
0000
0000
0000
0000
0000
3c00
4200
7e00
4000
4000
3c00
0000
0000
ENDCHAR
STARTCHAR f
ENCODING 102 
SWIDTH 666 0
DWIDTH 8 0
BBX 8 13 0 -3
BITMAP
0000
0000
1c00
2200
2000
2000
7c00
2000
2000
2000
2000
0000
0000
ENDCHAR
STARTCHAR g
ENCODING 103 
SWIDTH 666 0
DWIDTH 8 0
BBX 8 13 0 -3
BITMAP
0000
0000
0000
0000
0000
3a00
4400
4400
3800
4000
3c00
4200
3c00
ENDCHAR
STARTCHAR h
ENCODING 104 
SWIDTH 666 0
DWIDTH 8 0
BBX 8 13 0 -3
BITMAP
0000
0000
4000
4000
4000
5c00
6200
4200
4200
4200
4200
0000
0000
ENDCHAR
STARTCHAR i
ENCODING 105 
SWIDTH 666 0
DWIDTH 8 0
BBX 8 13 0 -3
BITMAP
0000
0000
0000
1000
0000
3000
1000
1000
1000
1000
7c00
0000
0000
ENDCHAR
STARTCHAR j
ENCODING 106 
SWIDTH 666 0
DWIDTH 8 0
BBX 8 13 0 -3
BITMAP
0000
0000
0000
0400
0000
0c00
0400
0400
0400
0400
4400
4400
3800
ENDCHAR
STARTCHAR k
ENCODING 107 
SWIDTH 666 0
DWIDTH 8 0
BBX 8 13 0 -3
BITMAP
0000
0000
4000
4000
4000
4400
4800
7000
4800
4400
4200
0000
0000
ENDCHAR
STARTCHAR l
ENCODING 108 
SWIDTH 666 0
DWIDTH 8 0
BBX 8 13 0 -3
BITMAP
0000
0000
3000
1000
1000
1000
1000
1000
1000
1000
7c00
0000
0000
ENDCHAR
STARTCHAR m
ENCODING 109 
SWIDTH 666 0
DWIDTH 8 0
BBX 8 13 0 -3
BITMAP
0000
0000
0000
0000
0000
ec00
9200
9200
9200
9200
8200
0000
0000
ENDCHAR
STARTCHAR n
ENCODING 110 
SWIDTH 666 0
DWIDTH 8 0
BBX 8 13 0 -3
BITMAP
0000
0000
0000
0000
0000
5c00
6200
4200
4200
4200
4200
0000
0000
ENDCHAR
STARTCHAR o
ENCODING 111 
SWIDTH 666 0
DWIDTH 8 0
BBX 8 13 0 -3
BITMAP
0000
0000
0000
0000
0000
3c00
4200
4200
4200
4200
3c00
0000
0000
ENDCHAR
STARTCHAR p
ENCODING 112 
SWIDTH 666 0
DWIDTH 8 0
BBX 8 13 0 -3
BITMAP
0000
0000
0000
0000
0000
5c00
6200
4200
6200
5c00
4000
4000
4000
ENDCHAR
STARTCHAR q
ENCODING 113 
SWIDTH 666 0
DWIDTH 8 0
BBX 8 13 0 -3
BITMAP
0000
0000
0000
0000
0000
3a00
4600
4200
4600
3a00
0200
0200
0200
ENDCHAR
STARTCHAR r
ENCODING 114 
SWIDTH 666 0
DWIDTH 8 0
BBX 8 13 0 -3
BITMAP
0000
0000
0000
0000
0000
5c00
2200
2000
2000
2000
2000
0000
0000
ENDCHAR
STARTCHAR s
ENCODING 115 
SWIDTH 666 0
DWIDTH 8 0
BBX 8 13 0 -3
BITMAP
0000
0000
0000
0000
0000
3c00
4200
3000
0c00
4200
3c00
0000
0000
ENDCHAR
STARTCHAR t
ENCODING 116 
SWIDTH 666 0
DWIDTH 8 0
BBX 8 13 0 -3
BITMAP
0000
0000
0000
2000
2000
7c00
2000
2000
2000
2200
1c00
0000
0000
ENDCHAR
STARTCHAR u
ENCODING 117 
SWIDTH 666 0
DWIDTH 8 0
BBX 8 13 0 -3
BITMAP
0000
0000
0000
0000
0000
4400
4400
4400
4400
4400
3a00
0000
0000
ENDCHAR
STARTCHAR v
ENCODING 118 
SWIDTH 666 0
DWIDTH 8 0
BBX 8 13 0 -3
BITMAP
0000
0000
0000
0000
0000
4400
4400
4400
2800
2800
1000
0000
0000
ENDCHAR
STARTCHAR w
ENCODING 119 
SWIDTH 666 0
DWIDTH 8 0
BBX 8 13 0 -3
BITMAP
0000
0000
0000
0000
0000
8200
8200
9200
9200
aa00
4400
0000
0000
ENDCHAR
STARTCHAR x
ENCODING 120 
SWIDTH 666 0
DWIDTH 8 0
BBX 8 13 0 -3
BITMAP
0000
0000
0000
0000
0000
4200
2400
1800
1800
2400
4200
0000
0000
ENDCHAR
STARTCHAR y
ENCODING 121 
SWIDTH 666 0
DWIDTH 8 0
BBX 8 13 0 -3
BITMAP
0000
0000
0000
0000
0000
4200
4200
4200
4600
3a00
0200
4200
3c00
ENDCHAR
STARTCHAR z
ENCODING 122 
SWIDTH 666 0
DWIDTH 8 0
BBX 8 13 0 -3
BITMAP
0000
0000
0000
0000
0000
7e00
0400
0800
1000
2000
7e00
0000
0000
ENDCHAR
STARTCHAR lbrace
ENCODING 123 
SWIDTH 666 0
DWIDTH 8 0
BBX 8 13 0 -3
BITMAP
0000
0000
1c00
2000
2000
1000
6000
1000
2000
2000
1c00
0000
0000
ENDCHAR
STARTCHAR pipe
ENCODING 124 
SWIDTH 666 0
DWIDTH 8 0
BBX 8 13 0 -3
BITMAP
0000
1000
1000
1000
1000
1000
0000
1000
1000
1000
1000
1000
0000
ENDCHAR
STARTCHAR rbrace
ENCODING 125 
SWIDTH 666 0
DWIDTH 8 0
BBX 8 13 0 -3
BITMAP
0000
0000
7000
0800
0800
1000
0c00
1000
0800
0800
7000
0000
0000
ENDCHAR
STARTCHAR tilde
ENCODING 126 
SWIDTH 666 0
DWIDTH 8 0
BBX 8 13 0 -3
BITMAP
0000
0000
0000
0000
0000
2400
5400
4800
0000
0000
0000
0000
0000
ENDCHAR
STARTCHAR nul
ENCODING 127 
SWIDTH 666 0
DWIDTH 8 0
BBX 8 13 0 -3
BITMAP
0000
0000
0000
0000
0000
0000
0000
0000
0000
0000
0000
0000
0000
ENDCHAR
STARTCHAR right
ENCODING 128 
SWIDTH 666 0
DWIDTH 8 0
BBX 8 13 0 -3
BITMAP
0000
0000
0000
0200
0200
0200
fe00
0200
0200
0200
0000
0000
0000
ENDCHAR
STARTCHAR left
ENCODING 129 
SWIDTH 666 0
DWIDTH 8 0
BBX 8 13 0 -3
BITMAP
0000
0000
0000
8000
8000
8000
fe00
8000
8000
8000
0000
0000
0000
ENDCHAR
STARTCHAR rshoe
ENCODING 130 
SWIDTH 666 0
DWIDTH 8 0
BBX 8 13 0 -3
BITMAP
0000
0000
0000
7e00
8000
8000
8000
8000
7e80
0000
0000
0000
0000
ENDCHAR
STARTCHAR lshoe
ENCODING 131 
SWIDTH 666 0
DWIDTH 8 0
BBX 8 13 0 -3
BITMAP
0000
0000
0000
fc00
0200
0200
0280
0200
fc00
0000
0000
0000
0000
ENDCHAR
STARTCHAR ibeam
ENCODING 132 
SWIDTH 666 0
DWIDTH 8 0
BBX 8 13 0 -3
BITMAP
0000
0000
fe00
1000
1000
1000
1000
1000
1000
1000
fe00
0000
0000
ENDCHAR
STARTCHAR east
ENCODING 133 
SWIDTH 666 0
DWIDTH 8 0
BBX 8 13 0 -3
BITMAP
0000
0000
1000
0800
0400
fe00
0400
0800
1000
0000
0000
0000
0000
ENDCHAR
STARTCHAR neq
ENCODING 134 
SWIDTH 666 0
DWIDTH 8 0
BBX 8 13 0 -3
BITMAP
0000
0100
0200
0400
fe00
0800
1000
fe00
2000
4000
8000
0000
0000
ENDCHAR
STARTCHAR nul
ENCODING 135 
SWIDTH 666 0
DWIDTH 8 0
BBX 8 13 0 -3
BITMAP
0000
0000
0000
0000
0000
0000
0000
0000
0000
0000
0000
0000
0000
ENDCHAR
STARTCHAR nul
ENCODING 136 
SWIDTH 666 0
DWIDTH 8 0
BBX 8 13 0 -3
BITMAP
0000
0000
0000
0000
0000
0000
0000
0000
0000
0000
0000
0000
0000
ENDCHAR
STARTCHAR log
ENCODING 137 
SWIDTH 666 0
DWIDTH 8 0
BBX 8 13 0 -3
BITMAP
0000
0000
7c00
c600
aa00
9200
aa00
c600
7c00
0000
0000
0000
0000
ENDCHAR
STARTCHAR nul
ENCODING 138 
SWIDTH 666 0
DWIDTH 8 0
BBX 8 13 0 -3
BITMAP
0000
0000
0000
0000
0000
0000
0000
0000
0000
0000
0000
0000
0000
ENDCHAR
STARTCHAR south
ENCODING 139 
SWIDTH 666 0
DWIDTH 8 0
BBX 8 13 0 -3
BITMAP
0000
0000
1000
1000
1000
1000
1000
9200
5400
3800
1000
0000
0000
ENDCHAR
STARTCHAR north
ENCODING 140 
SWIDTH 666 0
DWIDTH 8 0
BBX 8 13 0 -3
BITMAP
0000
0000
1000
3800
5400
9200
1000
1000
1000
1000
1000
0000
0000
ENDCHAR
STARTCHAR ustile
ENCODING 141 
SWIDTH 666 0
DWIDTH 8 0
BBX 8 13 0 -3
BITMAP
0000
7c00
4000
4000
4000
4000
4000
4000
4000
4000
4000
4000
0000
ENDCHAR
STARTCHAR nul
ENCODING 142 
SWIDTH 666 0
DWIDTH 8 0
BBX 8 13 0 -3
BITMAP
0000
0000
0000
0000
0000
0000
0000
0000
0000
0000
0000
0000
0000
ENDCHAR
STARTCHAR dstile
ENCODING 143 
SWIDTH 666 0
DWIDTH 8 0
BBX 8 13 0 -3
BITMAP
0000
4000
4000
4000
4000
4000
4000
4000
4000
4000
4000
7c00
0000
ENDCHAR
STARTCHAR west
ENCODING 144 
SWIDTH 666 0
DWIDTH 8 0
BBX 8 13 0 -3
BITMAP
0000
0000
1000
2000
4000
fe00
4000
2000
1000
0000
0000
0000
0000
ENDCHAR
STARTCHAR delta
ENCODING 145 
SWIDTH 666 0
DWIDTH 8 0
BBX 8 13 0 -3
BITMAP
0000
0000
1000
2800
2800
4400
4400
8200
8200
fe00
0000
0000
0000
ENDCHAR
STARTCHAR cross
ENCODING 146 
SWIDTH 666 0
DWIDTH 8 0
BBX 8 13 0 -3
BITMAP
0000
0080
0000
4400
2800
1000
2800
4400
0000
0000
0000
0000
0000
ENDCHAR
STARTCHAR pine
ENCODING 147 
SWIDTH 666 0
DWIDTH 8 0
BBX 8 13 0 -3
BITMAP
1000
1000
1000
3800
3800
5400
5400
9200
9200
fe00
1000
1000
0000
ENDCHAR
STARTCHAR nul
ENCODING 148 
SWIDTH 666 0
DWIDTH 8 0
BBX 8 13 0 -3
BITMAP
0000
0000
0000
0000
0000
0000
0000
0000
0000
0000
0000
0000
0000
ENDCHAR
STARTCHAR box
ENCODING 149 
SWIDTH 666 0
DWIDTH 8 0
BBX 8 13 0 -3
BITMAP
fe00
8200
8200
8200
8200
8200
8200
8200
8200
8200
8200
fe00
0000
ENDCHAR
STARTCHAR nul
ENCODING 150 
SWIDTH 666 0
DWIDTH 8 0
BBX 8 13 0 -3
BITMAP
0000
0000
0000
0000
0000
0000
0000
0000
0000
0000
0000
0000
0000
ENDCHAR
STARTCHAR qbox
ENCODING 151 
SWIDTH 666 0
DWIDTH 8 0
BBX 8 13 0 -3
BITMAP
fe00
9200
9200
9200
8200
8200
8200
8200
8200
8200
8200
fe00
0000
ENDCHAR
STARTCHAR domino
ENCODING 152 
SWIDTH 666 0
DWIDTH 8 0
BBX 8 13 0 -3
BITMAP
fe00
8200
9200
9200
8200
fe00
8200
9200
9200
8200
8200
fe00
0000
ENDCHAR
STARTCHAR nul
ENCODING 153 
SWIDTH 666 0
DWIDTH 8 0
BBX 8 13 0 -3
BITMAP
0000
0000
0000
0000
0000
0000
0000
0000
0000
0000
0000
0000
0000
ENDCHAR
STARTCHAR eyes
ENCODING 154 
SWIDTH 666 0
DWIDTH 8 0
BBX 8 13 0 -3
BITMAP
0000
6600
6600
0000
0000
0000
0000
0000
0000
0000
0000
0000
0000
ENDCHAR
STARTCHAR nul
ENCODING 155 
SWIDTH 666 0
DWIDTH 8 0
BBX 8 13 0 -3
BITMAP
0000
0000
0000
0000
0000
0000
0000
0000
0000
0000
0000
0000
0000
ENDCHAR
STARTCHAR nul
ENCODING 156 
SWIDTH 666 0
DWIDTH 8 0
BBX 8 13 0 -3
BITMAP
0000
0000
0000
0000
0000
0000
0000
0000
0000
0000
0000
0000
0000
ENDCHAR
STARTCHAR spine
ENCODING 157 
SWIDTH 666 0
DWIDTH 8 0
BBX 8 13 0 -3
BITMAP
1000
1000
fe00
9200
9200
5400
5400
3800
3800
1000
1000
1000
0000
ENDCHAR
STARTCHAR commabar
ENCODING 158 
SWIDTH 666 0
DWIDTH 8 0
BBX 8 13 0 -3
BITMAP
0000
0000
0000
0000
7e00
0000
0000
1800
1000
2000
4000
0000
0000
ENDCHAR
STARTCHAR nul
ENCODING 159 
SWIDTH 666 0
DWIDTH 8 0
BBX 8 13 0 -3
BITMAP
0000
0000
0000
0000
0000
0000
0000
0000
0000
0000
0000
0000
0000
ENDCHAR
STARTCHAR nul
ENCODING 160 
SWIDTH 666 0
DWIDTH 8 0
BBX 8 13 0 -3
BITMAP
0000
0000
0000
0000
0000
0000
0000
0000
0000
0000
0000
0000
0000
ENDCHAR
STARTCHAR delbox
ENCODING 161 
SWIDTH 666 0
DWIDTH 8 0
BBX 8 13 0 -3
BITMAP
fe00
8200
8200
fe00
c600
c600
aa00
aa00
9200
8200
8200
fe00
0000
ENDCHAR
STARTCHAR westbox
ENCODING 162 
SWIDTH 666 0
DWIDTH 8 0
BBX 8 13 0 -3
BITMAP
fe00
8200
8200
9200
a200
fe00
a200
9200
8200
8200
8200
fe00
0000
ENDCHAR
STARTCHAR eastbox
ENCODING 163 
SWIDTH 666 0
DWIDTH 8 0
BBX 8 13 0 -3
BITMAP
fe00
8200
8200
9200
8a00
fe00
8a00
9200
8200
8200
8200
fe00
0000
ENDCHAR
STARTCHAR nul
ENCODING 164 
SWIDTH 666 0
DWIDTH 8 0
BBX 8 13 0 -3
BITMAP
0000
0000
0000
0000
0000
0000
0000
0000
0000
0000
0000
0000
0000
ENDCHAR
STARTCHAR nul
ENCODING 165 
SWIDTH 666 0
DWIDTH 8 0
BBX 8 13 0 -3
BITMAP
0000
0000
0000
0000
0000
0000
0000
0000
0000
0000
0000
0000
0000
ENDCHAR
STARTCHAR lamp
ENCODING 166 
SWIDTH 666 0
DWIDTH 8 0
BBX 8 13 0 -3
BITMAP
0000
0000
7c00
8200
ba00
c600
c600
c600
ba00
8200
8200
0000
0000
ENDCHAR
STARTCHAR slopebar
ENCODING 167 
SWIDTH 666 0
DWIDTH 8 0
BBX 8 13 0 -3
BITMAP
0000
0000
8000
8000
4000
2000
7e00
0800
0400
0200
0200
0000
0000
ENDCHAR
STARTCHAR gem
ENCODING 168 
SWIDTH 666 0
DWIDTH 8 0
BBX 8 13 0 -3
BITMAP
0000
0000
1000
2800
4400
8200
4400
2800
1000
0000
0000
0000
0000
ENDCHAR
STARTCHAR nul
ENCODING 169 
SWIDTH 666 0
DWIDTH 8 0
BBX 8 13 0 -3
BITMAP
0000
0000
0000
0000
0000
0000
0000
0000
0000
0000
0000
0000
0000
ENDCHAR
STARTCHAR nul
ENCODING 170 
SWIDTH 666 0
DWIDTH 8 0
BBX 8 13 0 -3
BITMAP
0000
0000
0000
0000
0000
0000
0000
0000
0000
0000
0000
0000
0000
ENDCHAR
STARTCHAR nul
ENCODING 171 
SWIDTH 666 0
DWIDTH 8 0
BBX 8 13 0 -3
BITMAP
0000
0000
0000
0000
0000
0000
0000
0000
0000
0000
0000
0000
0000
ENDCHAR
STARTCHAR nul
ENCODING 172 
SWIDTH 666 0
DWIDTH 8 0
BBX 8 13 0 -3
BITMAP
0000
0000
0000
0000
0000
0000
0000
0000
0000
0000
0000
0000
0000
ENDCHAR
STARTCHAR nul
ENCODING 173 
SWIDTH 666 0
DWIDTH 8 0
BBX 8 13 0 -3
BITMAP
0000
0000
0000
0000
0000
0000
0000
0000
0000
0000
0000
0000
0000
ENDCHAR
STARTCHAR lgo
ENCODING 174 
SWIDTH 666 0
DWIDTH 8 0
BBX 8 13 0 -3
BITMAP
0000
0000
1000
2000
7e00
8000
7e00
2000
1000
0000
0000
0000
0000
ENDCHAR
STARTCHAR rgo
ENCODING 175 
SWIDTH 666 0
DWIDTH 8 0
BBX 8 13 0 -3
BITMAP
0000
0000
1000
0800
fc00
0200
fc00
0800
1000
0000
0000
0000
0000
ENDCHAR
STARTCHAR nul
ENCODING 176 
SWIDTH 666 0
DWIDTH 8 0
BBX 8 13 0 -3
BITMAP
0000
0000
0000
0000
0000
0000
0000
0000
0000
0000
0000
0000
0000
ENDCHAR
STARTCHAR nul
ENCODING 177 
SWIDTH 666 0
DWIDTH 8 0
BBX 8 13 0 -3
BITMAP
0000
0000
0000
0000
0000
0000
0000
0000
0000
0000
0000
0000
0000
ENDCHAR
STARTCHAR nul
ENCODING 178 
SWIDTH 666 0
DWIDTH 8 0
BBX 8 13 0 -3
BITMAP
0000
0000
0000
0000
0000
0000
0000
0000
0000
0000
0000
0000
0000
ENDCHAR
STARTCHAR nul
ENCODING 179 
SWIDTH 666 0
DWIDTH 8 0
BBX 8 13 0 -3
BITMAP
0000
0000
0000
0000
0000
0000
0000
0000
0000
0000
0000
0000
0000
ENDCHAR
STARTCHAR nul
ENCODING 180 
SWIDTH 666 0
DWIDTH 8 0
BBX 8 13 0 -3
BITMAP
0000
0000
0000
0000
0000
0000
0000
0000
0000
0000
0000
0000
0000
ENDCHAR
STARTCHAR nul
ENCODING 181 
SWIDTH 666 0
DWIDTH 8 0
BBX 8 13 0 -3
BITMAP
0000
0000
0000
0000
0000
0000
0000
0000
0000
0000
0000
0000
0000
ENDCHAR
STARTCHAR nul
ENCODING 182 
SWIDTH 666 0
DWIDTH 8 0
BBX 8 13 0 -3
BITMAP
0000
0000
0000
0000
0000
0000
0000
0000
0000
0000
0000
0000
0000
ENDCHAR
STARTCHAR nul
ENCODING 183 
SWIDTH 666 0
DWIDTH 8 0
BBX 8 13 0 -3
BITMAP
0000
0000
0000
0000
0000
0000
0000
0000
0000
0000
0000
0000
0000
ENDCHAR
STARTCHAR nul
ENCODING 184 
SWIDTH 666 0
DWIDTH 8 0
BBX 8 13 0 -3
BITMAP
0000
0000
0000
0000
0000
0000
0000
0000
0000
0000
0000
0000
0000
ENDCHAR
STARTCHAR nul
ENCODING 185 
SWIDTH 666 0
DWIDTH 8 0
BBX 8 13 0 -3
BITMAP
0000
0000
0000
0000
0000
0000
0000
0000
0000
0000
0000
0000
0000
ENDCHAR
STARTCHAR nul
ENCODING 186 
SWIDTH 666 0
DWIDTH 8 0
BBX 8 13 0 -3
BITMAP
0000
0000
0000
0000
0000
0000
0000
0000
0000
0000
0000
0000
0000
ENDCHAR
STARTCHAR nul
ENCODING 187 
SWIDTH 666 0
DWIDTH 8 0
BBX 8 13 0 -3
BITMAP
0000
0000
0000
0000
0000
0000
0000
0000
0000
0000
0000
0000
0000
ENDCHAR
STARTCHAR nul
ENCODING 188 
SWIDTH 666 0
DWIDTH 8 0
BBX 8 13 0 -3
BITMAP
0000
0000
0000
0000
0000
0000
0000
0000
0000
0000
0000
0000
0000
ENDCHAR
STARTCHAR nul
ENCODING 189 
SWIDTH 666 0
DWIDTH 8 0
BBX 8 13 0 -3
BITMAP
0000
0000
0000
0000
0000
0000
0000
0000
0000
0000
0000
0000
0000
ENDCHAR
STARTCHAR nul
ENCODING 190 
SWIDTH 666 0
DWIDTH 8 0
BBX 8 13 0 -3
BITMAP
0000
0000
0000
0000
0000
0000
0000
0000
0000
0000
0000
0000
0000
ENDCHAR
STARTCHAR nul
ENCODING 191 
SWIDTH 666 0
DWIDTH 8 0
BBX 8 13 0 -3
BITMAP
0000
0000
0000
0000
0000
0000
0000
0000
0000
0000
0000
0000
0000
ENDCHAR
STARTCHAR nul
ENCODING 192 
SWIDTH 666 0
DWIDTH 8 0
BBX 8 13 0 -3
BITMAP
0000
0000
0000
0000
0000
0000
0000
0000
0000
0000
0000
0000
0000
ENDCHAR
STARTCHAR nul
ENCODING 193 
SWIDTH 666 0
DWIDTH 8 0
BBX 8 13 0 -3
BITMAP
0000
0000
0000
0000
0000
0000
0000
0000
0000
0000
0000
0000
0000
ENDCHAR
STARTCHAR nul
ENCODING 194 
SWIDTH 666 0
DWIDTH 8 0
BBX 8 13 0 -3
BITMAP
0000
0000
0000
0000
0000
0000
0000
0000
0000
0000
0000
0000
0000
ENDCHAR
STARTCHAR nul
ENCODING 195 
SWIDTH 666 0
DWIDTH 8 0
BBX 8 13 0 -3
BITMAP
0000
0000
0000
0000
0000
0000
0000
0000
0000
0000
0000
0000
0000
ENDCHAR
STARTCHAR nul
ENCODING 196 
SWIDTH 666 0
DWIDTH 8 0
BBX 8 13 0 -3
BITMAP
0000
0000
0000
0000
0000
0000
0000
0000
0000
0000
0000
0000
0000
ENDCHAR
STARTCHAR nul
ENCODING 197 
SWIDTH 666 0
DWIDTH 8 0
BBX 8 13 0 -3
BITMAP
0000
0000
0000
0000
0000
0000
0000
0000
0000
0000
0000
0000
0000
ENDCHAR
STARTCHAR nul
ENCODING 198 
SWIDTH 666 0
DWIDTH 8 0
BBX 8 13 0 -3
BITMAP
0000
0000
0000
0000
0000
0000
0000
0000
0000
0000
0000
0000
0000
ENDCHAR
STARTCHAR nul
ENCODING 199 
SWIDTH 666 0
DWIDTH 8 0
BBX 8 13 0 -3
BITMAP
0000
0000
0000
0000
0000
0000
0000
0000
0000
0000
0000
0000
0000
ENDCHAR
STARTCHAR nul
ENCODING 200 
SWIDTH 666 0
DWIDTH 8 0
BBX 8 13 0 -3
BITMAP
0000
0000
0000
0000
0000
0000
0000
0000
0000
0000
0000
0000
0000
ENDCHAR
STARTCHAR nul
ENCODING 201 
SWIDTH 666 0
DWIDTH 8 0
BBX 8 13 0 -3
BITMAP
0000
0000
0000
0000
0000
0000
0000
0000
0000
0000
0000
0000
0000
ENDCHAR
STARTCHAR nul
ENCODING 202 
SWIDTH 666 0
DWIDTH 8 0
BBX 8 13 0 -3
BITMAP
0000
0000
0000
0000
0000
0000
0000
0000
0000
0000
0000
0000
0000
ENDCHAR
STARTCHAR nul
ENCODING 203 
SWIDTH 666 0
DWIDTH 8 0
BBX 8 13 0 -3
BITMAP
0000
0000
0000
0000
0000
0000
0000
0000
0000
0000
0000
0000
0000
ENDCHAR
STARTCHAR nul
ENCODING 204 
SWIDTH 666 0
DWIDTH 8 0
BBX 8 13 0 -3
BITMAP
0000
0000
0000
0000
0000
0000
0000
0000
0000
0000
0000
0000
0000
ENDCHAR
STARTCHAR nul
ENCODING 205 
SWIDTH 666 0
DWIDTH 8 0
BBX 8 13 0 -3
BITMAP
0000
0000
0000
0000
0000
0000
0000
0000
0000
0000
0000
0000
0000
ENDCHAR
STARTCHAR nul
ENCODING 206 
SWIDTH 666 0
DWIDTH 8 0
BBX 8 13 0 -3
BITMAP
0000
0000
0000
0000
0000
0000
0000
0000
0000
0000
0000
0000
0000
ENDCHAR
STARTCHAR nul
ENCODING 207 
SWIDTH 666 0
DWIDTH 8 0
BBX 8 13 0 -3
BITMAP
0000
0000
0000
0000
0000
0000
0000
0000
0000
0000
0000
0000
0000
ENDCHAR
STARTCHAR nul
ENCODING 208 
SWIDTH 666 0
DWIDTH 8 0
BBX 8 13 0 -3
BITMAP
0000
0000
0000
0000
0000
0000
0000
0000
0000
0000
0000
0000
0000
ENDCHAR
STARTCHAR nul
ENCODING 209 
SWIDTH 666 0
DWIDTH 8 0
BBX 8 13 0 -3
BITMAP
0000
0000
0000
0000
0000
0000
0000
0000
0000
0000
0000
0000
0000
ENDCHAR
STARTCHAR nul
ENCODING 210 
SWIDTH 666 0
DWIDTH 8 0
BBX 8 13 0 -3
BITMAP
0000
0000
0000
0000
0000
0000
0000
0000
0000
0000
0000
0000
0000
ENDCHAR
STARTCHAR nul
ENCODING 211 
SWIDTH 666 0
DWIDTH 8 0
BBX 8 13 0 -3
BITMAP
0000
0000
0000
0000
0000
0000
0000
0000
0000
0000
0000
0000
0000
ENDCHAR
STARTCHAR nul
ENCODING 212 
SWIDTH 666 0
DWIDTH 8 0
BBX 8 13 0 -3
BITMAP
0000
0000
0000
0000
0000
0000
0000
0000
0000
0000
0000
0000
0000
ENDCHAR
STARTCHAR nul
ENCODING 213 
SWIDTH 666 0
DWIDTH 8 0
BBX 8 13 0 -3
BITMAP
0000
0000
0000
0000
0000
0000
0000
0000
0000
0000
0000
0000
0000
ENDCHAR
STARTCHAR nul
ENCODING 214 
SWIDTH 666 0
DWIDTH 8 0
BBX 8 13 0 -3
BITMAP
0000
0000
0000
0000
0000
0000
0000
0000
0000
0000
0000
0000
0000
ENDCHAR
STARTCHAR nul
ENCODING 215 
SWIDTH 666 0
DWIDTH 8 0
BBX 8 13 0 -3
BITMAP
0000
0000
0000
0000
0000
0000
0000
0000
0000
0000
0000
0000
0000
ENDCHAR
STARTCHAR nul
ENCODING 216 
SWIDTH 666 0
DWIDTH 8 0
BBX 8 13 0 -3
BITMAP
0000
0000
0000
0000
0000
0000
0000
0000
0000
0000
0000
0000
0000
ENDCHAR
STARTCHAR nul
ENCODING 217 
SWIDTH 666 0
DWIDTH 8 0
BBX 8 13 0 -3
BITMAP
0000
0000
0000
0000
0000
0000
0000
0000
0000
0000
0000
0000
0000
ENDCHAR
STARTCHAR nul
ENCODING 218 
SWIDTH 666 0
DWIDTH 8 0
BBX 8 13 0 -3
BITMAP
0000
0000
0000
0000
0000
0000
0000
0000
0000
0000
0000
0000
0000
ENDCHAR
STARTCHAR nul
ENCODING 219 
SWIDTH 666 0
DWIDTH 8 0
BBX 8 13 0 -3
BITMAP
0000
0000
0000
0000
0000
0000
0000
0000
0000
0000
0000
0000
0000
ENDCHAR
STARTCHAR nul
ENCODING 220 
SWIDTH 666 0
DWIDTH 8 0
BBX 8 13 0 -3
BITMAP
0000
0000
0000
0000
0000
0000
0000
0000
0000
0000
0000
0000
0000
ENDCHAR
STARTCHAR nul
ENCODING 221 
SWIDTH 666 0
DWIDTH 8 0
BBX 8 13 0 -3
BITMAP
0000
0000
0000
0000
0000
0000
0000
0000
0000
0000
0000
0000
0000
ENDCHAR
STARTCHAR nul
ENCODING 222 
SWIDTH 666 0
DWIDTH 8 0
BBX 8 13 0 -3
BITMAP
0000
0000
0000
0000
0000
0000
0000
0000
0000
0000
0000
0000
0000
ENDCHAR
STARTCHAR nul
ENCODING 223 
SWIDTH 666 0
DWIDTH 8 0
BBX 8 13 0 -3
BITMAP
0000
0000
0000
0000
0000
0000
0000
0000
0000
0000
0000
0000
0000
ENDCHAR
STARTCHAR alpha
ENCODING 224 
SWIDTH 666 0
DWIDTH 8 0
BBX 8 13 0 -3
BITMAP
0000
0000
0000
7200
8c00
8400
8400
8c00
7200
0000
0000
0000
0000
ENDCHAR
STARTCHAR nul
ENCODING 225 
SWIDTH 666 0
DWIDTH 8 0
BBX 8 13 0 -3
BITMAP
0000
0000
0000
0000
0000
0000
0000
0000
0000
0000
0000
0000
0000
ENDCHAR
STARTCHAR iota
ENCODING 226 
SWIDTH 666 0
DWIDTH 8 0
BBX 8 13 0 -3
BITMAP
0000
0000
0000
f000
1000
1000
1000
1000
1000
0e00
0000
0000
0000
ENDCHAR
STARTCHAR hoof
ENCODING 227 
SWIDTH 666 0
DWIDTH 8 0
BBX 8 13 0 -3
BITMAP
6c00
6c00
0000
0000
3800
4400
4400
4400
3800
0000
0000
0000
0000
ENDCHAR
STARTCHAR paw
ENCODING 228 
SWIDTH 666 0
DWIDTH 8 0
BBX 8 13 0 -3
BITMAP
6c00
6c00
0000
7c00
8200
8200
8200
8200
8200
7c00
0000
0000
0000
ENDCHAR
STARTCHAR nor
ENCODING 229 
SWIDTH 666 0
DWIDTH 8 0
BBX 8 13 0 -3
BITMAP
0000
0000
8200
8200
7400
4c00
aa00
2800
1000
0000
0000
0000
0000
ENDCHAR
STARTCHAR down
ENCODING 230 
SWIDTH 666 0
DWIDTH 8 0
BBX 8 13 0 -3
BITMAP
0000
0000
1000
1000
1000
1000
1000
1000
1000
fe00
0000
0000
0000
ENDCHAR
STARTCHAR up
ENCODING 231 
SWIDTH 666 0
DWIDTH 8 0
BBX 8 13 0 -3
BITMAP
0000
0000
fe00
1000
1000
1000
1000
1000
1000
1000
0000
0000
0000
ENDCHAR
STARTCHAR phi
ENCODING 232 
SWIDTH 666 0
DWIDTH 8 0
BBX 8 13 0 -3
BITMAP
1000
1000
7c00
9200
9200
9200
9200
9200
7c00
1000
1000
1000
0000
ENDCHAR
STARTCHAR circlebar
ENCODING 233 
SWIDTH 666 0
DWIDTH 8 0
BBX 8 13 0 -3
BITMAP
0000
0000
7c00
8200
8200
fe00
8200
8200
7c00
0000
0000
0000
0000
ENDCHAR
STARTCHAR nand
ENCODING 234 
SWIDTH 666 0
DWIDTH 8 0
BBX 8 13 0 -3
BITMAP
0000
0000
1000
2800
aa00
5c00
6400
8200
8200
0000
0000
0000
0000
ENDCHAR
STARTCHAR slashbar
ENCODING 235 
SWIDTH 666 0
DWIDTH 8 0
BBX 8 13 0 -3
BITMAP
0000
0000
0200
0200
0400
7e00
1000
2000
4000
8000
8000
0000
0000
ENDCHAR
STARTCHAR del
ENCODING 236 
SWIDTH 666 0
DWIDTH 8 0
BBX 8 13 0 -3
BITMAP
0000
0000
fe00
8280
8200
4400
4400
2800
2800
1000
0000
0000
0000
ENDCHAR
STARTCHAR cant
ENCODING 237 
SWIDTH 666 0
DWIDTH 8 0
BBX 8 13 0 -3
BITMAP
0000
8000
7c00
a200
a200
9200
9a00
8600
7e00
0100
0000
0000
0000
ENDCHAR
STARTCHAR epsilon
ENCODING 238 
SWIDTH 666 0
DWIDTH 8 0
BBX 8 13 0 -3
BITMAP
0000
0000
0000
7c00
8000
8000
7000
8000
8000
7c00
0000
0000
0000
ENDCHAR
STARTCHAR cap
ENCODING 239 
SWIDTH 666 0
DWIDTH 8 0
BBX 8 13 0 -3
BITMAP
0000
0000
7800
8400
8400
8400
8400
8400
8400
8400
0000
0000
0000
ENDCHAR
STARTCHAR same
ENCODING 240 
SWIDTH 666 0
DWIDTH 8 0
BBX 8 13 0 -3
BITMAP
0000
0000
0000
fe00
0000
0000
fe00
0000
0000
0000
fe00
0000
0000
ENDCHAR
STARTCHAR nul
ENCODING 241 
SWIDTH 666 0
DWIDTH 8 0
BBX 8 13 0 -3
BITMAP
0000
0000
0000
0000
0000
0000
0000
0000
0000
0000
0000
0000
0000
ENDCHAR
STARTCHAR aft
ENCODING 242 
SWIDTH 666 0
DWIDTH 8 0
BBX 8 13 0 -3
BITMAP
0000
4000
2000
1000
0800
0400
0800
1000
2000
4000
0000
7c00
0000
ENDCHAR
STARTCHAR fore
ENCODING 243 
SWIDTH 666 0
DWIDTH 8 0
BBX 8 13 0 -3
BITMAP
0000
0400
0800
1000
2000
4000
2000
1000
0800
0400
0000
7c00
0000
ENDCHAR
STARTCHAR thorn
ENCODING 244 
SWIDTH 666 0
DWIDTH 8 0
BBX 8 13 0 -3
BITMAP
0000
0000
fe00
1000
3800
5400
5400
3860
1000
1000
0000
0000
0000
ENDCHAR
STARTCHAR pawn
ENCODING 245 
SWIDTH 666 0
DWIDTH 8 0
BBX 8 13 0 -3
BITMAP
0000
0000
1000
1000
3800
5400
5400
3800
1000
fe00
0000
0000
0000
ENDCHAR
STARTCHAR divide
ENCODING 246 
SWIDTH 666 0
DWIDTH 8 0
BBX 8 13 0 -3
BITMAP
0000
0000
1800
0000
0000
7e00
0000
0000
1800
0000
0000
0000
0000
ENDCHAR
STARTCHAR omega
ENCODING 247 
SWIDTH 666 0
DWIDTH 8 0
BBX 8 13 0 -3
BITMAP
0000
0000
0000
8200
8200
9200
9200
9200
6c00
0000
0000
0000
0000
ENDCHAR
STARTCHAR jot
ENCODING 248 
SWIDTH 666 0
DWIDTH 8 0
BBX 8 13 0 -3
BITMAP
0000
0000
0000
0000
3800
4400
4400
4400
3800
0000
0000
0000
0000
ENDCHAR
STARTCHAR circle
ENCODING 249 
SWIDTH 666 0
DWIDTH 8 0
BBX 8 13 0 -3
BITMAP
0000
0000
7c00
8200
8200
8200
8200
8200
7c00
0000
0000
0000
0000
ENDCHAR
STARTCHAR vel
ENCODING 250 
SWIDTH 666 0
DWIDTH 8 0
BBX 8 13 0 -3
BITMAP
0000
0000
0000
8200
8200
4400
4400
2800
2800
1000
0000
0000
0000
ENDCHAR
STARTCHAR rho
ENCODING 251 
SWIDTH 666 0
DWIDTH 8 0
BBX 8 13 0 -3
BITMAP
0000
0000
0000
1c00
2200
2200
2200
3c00
2000
2000
2000
2000
0000
ENDCHAR
STARTCHAR cup
ENCODING 252 
SWIDTH 666 0
DWIDTH 8 0
BBX 8 13 0 -3
BITMAP
0000
0000
8400
8400
8400
8400
8400
8400
8400
7800
0000
0000
0000
ENDCHAR
STARTCHAR macron
ENCODING 253 
SWIDTH 666 0
DWIDTH 8 0
BBX 8 13 0 -3
BITMAP
0000
fe00
0000
0000
0000
0000
0000
0000
0000
0000
0000
0000
0000
ENDCHAR
STARTCHAR stile
ENCODING 254 
SWIDTH 666 0
DWIDTH 8 0
BBX 8 13 0 -3
BITMAP
0000
1000
1000
1000
1000
1000
1000
1000
1000
1000
1000
1000
0000
ENDCHAR
STARTCHAR nul
ENCODING 255 
SWIDTH 666 0
DWIDTH 8 0
BBX 8 13 0 -3
BITMAP
0000
0000
0000
0000
0000
0000
0000
0000
0000
0000
0000
0000
0000
ENDCHAR
ENDFONT
